# xmcd CD database file
#
# Track frame offsets:
#	150
#	19329
#	39155
#	54580
#	73166
#	94690
#	110842
#	129210
#	142906
#	159452
#
# Disc length: 2342 seconds
#
# Revision: 2
# Processed by: cddbd v1.5.2PL0 Copyright (c) Steve Scherf et al.
# Submitted via: CDex 1.79
#
DISCID=8209240a
DTITLE=Koomurri Tribal Dance Australia - Didgeridoo
DYEAR=2006
DGENRE=New Wave
TTITLE0=Groovy Totems
TTITLE1=Fire
TTITLE2=Wildlife
TTITLE3=Midnight Walker
TTITLE4=Theme Capture
TTITLE5=Welcome to Ceremonies
TTITLE6=Dancing Willows
TTITLE7=Walkabout Warrior
TTITLE8=Outback Journey
TTITLE9=Dancing Grounds
EXTD=YEAR: 2006
EXTT0=
EXTT1=
EXTT2=
EXTT3=
EXTT4=
EXTT5=
EXTT6=
EXTT7=
EXTT8=
EXTT9=
PLAYORDER=
